<svg xmlns="http://www.w3.org/2000/svg" viewBox="0 0 900 200" width="900" height="200">
  <defs>
    <linearGradient id="bgGrad" x1="0%" y1="0%" x2="100%" y2="0%">
      <stop offset="0%"   style="stop-color:#0d1117"/>
      <stop offset="50%"  style="stop-color:#161b22"/>
      <stop offset="100%" style="stop-color:#0d1117"/>
    </linearGradient>
    <linearGradient id="fireGrad" x1="0%" y1="0%" x2="100%" y2="0%">
      <stop offset="0%"   style="stop-color:#ff6b00"/>
      <stop offset="50%"  style="stop-color:#ffcc00"/>
      <stop offset="100%" style="stop-color:#ff4500;stop-opacity:0"/>
    </linearGradient>
    <linearGradient id="engineGrad" x1="0%" y1="0%" x2="0%" y2="100%">
      <stop offset="0%"   style="stop-color:#4a90d9"/>
      <stop offset="100%" style="stop-color:#1a3a5c"/>
    </linearGradient>
    <filter id="glow">
      <feGaussianBlur stdDeviation="3" result="coloredBlur"/>
      <feMerge><feMergeNode in="coloredBlur"/><feMergeNode in="SourceGraphic"/></feMerge>
    </filter>
  </defs>

  <!-- Background -->
  <rect width="900" height="200" fill="url(#bgGrad)"/>

  <!-- Subtle grid lines -->
  <g stroke="#1e2a3a" stroke-width="0.5" opacity="0.5">
    <line x1="0" y1="40"  x2="900" y2="40"/>
    <line x1="0" y1="80"  x2="900" y2="80"/>
    <line x1="0" y1="120" x2="900" y2="120"/>
    <line x1="0" y1="160" x2="900" y2="160"/>
    <line x1="150" y1="0" x2="150" y2="200"/>
    <line x1="300" y1="0" x2="300" y2="200"/>
    <line x1="450" y1="0" x2="450" y2="200"/>
    <line x1="600" y1="0" x2="600" y2="200"/>
    <line x1="750" y1="0" x2="750" y2="200"/>
  </g>

  <!-- ── RAMJET ENGINE SCHEMATIC ── -->
  <!-- Engine outer casing (top) -->
  <path d="M 200 70 Q 260 60 310 72 L 560 72 Q 590 72 610 80 L 680 80 Q 700 80 710 75 L 720 75"
        stroke="#4a90d9" stroke-width="2.5" fill="none"/>
  <!-- Engine outer casing (bottom) -->
  <path d="M 200 130 Q 260 140 310 128 L 560 128 Q 590 128 610 120 L 680 120 Q 700 120 710 125 L 720 125"
        stroke="#4a90d9" stroke-width="2.5" fill="none"/>
  <!-- Engine body fill -->
  <path d="M 200 70 Q 260 60 310 72 L 560 72 Q 590 72 610 80 L 680 80 Q 700 80 710 75 L 720 75
           L 720 125 L 710 125 Q 700 120 680 120 L 610 120 Q 590 128 560 128 L 310 128 Q 260 140 200 130 Z"
        fill="#0d2035" opacity="0.8"/>

  <!-- Combustor glow (fire) -->
  <ellipse cx="490" cy="100" rx="80" ry="24" fill="url(#fireGrad)" opacity="0.7"/>
  <ellipse cx="470" cy="100" rx="50" ry="16" fill="#ffcc00" opacity="0.3"/>

  <!-- Exhaust flame -->
  <path d="M 720 75 Q 780 88 820 100 Q 780 112 720 125 Z" fill="url(#fireGrad)" opacity="0.6"/>

  <!-- Inlet spike -->
  <path d="M 160 100 L 200 72 L 200 128 Z" fill="#2a5a8a" stroke="#4a90d9" stroke-width="1.5"/>

  <!-- Station markers -->
  <g fill="#58a6ff" font-family="monospace" font-size="13" text-anchor="middle" filter="url(#glow)">
    <text x="160" y="155">①</text>
    <text x="310" y="155">②</text>
    <text x="490" y="155">③</text>
    <text x="645" y="155">ⓔ</text>
    <text x="780" y="155">④</text>
  </g>

  <!-- Station lines -->
  <g stroke="#58a6ff" stroke-width="1" stroke-dasharray="4,3" opacity="0.6">
    <line x1="160" y1="140" x2="160" y2="125"/>
    <line x1="310" y1="140" x2="310" y2="128"/>
    <line x1="490" y1="140" x2="490" y2="128"/>
    <line x1="645" y1="140" x2="645" y2="120"/>
    <line x1="780" y1="140" x2="780" y2="118"/>
  </g>

  <!-- Labels above engine -->
  <g fill="#8b949e" font-family="sans-serif" font-size="10" text-anchor="middle">
    <text x="245" y="55">DIFFUSER</text>
    <text x="430" y="55">COMBUSTOR</text>
    <text x="610" y="55">NOZZLE</text>
  </g>
  <g stroke="#8b949e" stroke-width="0.8" opacity="0.5">
    <line x1="200" y1="58" x2="290" y2="58"/>
    <line x1="340" y1="58" x2="520" y2="58"/>
    <line x1="560" y1="58" x2="660" y2="58"/>
  </g>

  <!-- Flow arrows -->
  <g stroke="#58a6ff" stroke-width="1.5" fill="#58a6ff" opacity="0.8">
    <!-- Inlet arrow -->
    <line x1="105" y1="100" x2="148" y2="100"/>
    <polygon points="148,96 158,100 148,104"/>
    <!-- Exhaust arrow -->
    <line x1="730" y1="100" x2="820" y2="100"/>
    <polygon points="820,96 830,100 820,104"/>
  </g>
  <text x="120" y="92" fill="#58a6ff" font-size="10" font-family="monospace">V₁</text>
  <text x="835" y="104" fill="#ff8c42" font-size="10" font-family="monospace">Vₑ</text>

  <!-- ── TEXT SECTION ── -->
  <text x="50" y="35" font-family="sans-serif" font-size="22" font-weight="bold" fill="#e6edf3">
    🚀 Non-Ideal RAMJET Analysis
  </text>
  <text x="52" y="56" font-family="sans-serif" font-size="12" fill="#8b949e">
    MAE 563 · Arizona State University · MATLAB Parametric Study Tool
  </text>

  <!-- Bottom tag line -->
  <text x="50" y="185" font-family="monospace" font-size="11" fill="#3fb950">
    ✓ Thermal Choking Detection  ✓ Variable Cp Model  ✓ 9 Parametric Studies  ✓ Design Optimization
  </text>
</svg>
